G75*
G70*
%OFA0B0*%
%FSLAX24Y24*%
%IPPOS*%
%LPD*%
%AMOC8*
5,1,8,0,0,1.08239X$1,22.5*
%
%ADD10C,0.0080*%
%ADD11C,0.0060*%
%ADD12R,0.0340X0.0240*%
%ADD13R,0.0240X0.0340*%
%ADD14C,0.0120*%
D10*
X001140Y003141D02*
X001140Y003421D01*
X001140Y003281D02*
X001561Y003281D01*
X001491Y003601D02*
X001351Y003601D01*
X001281Y003671D01*
X001281Y003811D01*
X001351Y003881D01*
X001491Y003881D01*
X001561Y003811D01*
X001561Y003671D01*
X001491Y003601D01*
X001561Y004061D02*
X001281Y004061D01*
X001421Y004061D02*
X001281Y004202D01*
X001281Y004272D01*
X001351Y004445D02*
X001491Y004445D01*
X001561Y004515D01*
X001561Y004725D01*
X001701Y004725D02*
X001281Y004725D01*
X001281Y004515D01*
X001351Y004445D01*
X001281Y004905D02*
X001491Y004905D01*
X001561Y004976D01*
X001561Y005186D01*
X001281Y005186D01*
X001351Y005366D02*
X001281Y005436D01*
X001281Y005576D01*
X001351Y005646D01*
X001421Y005646D01*
X001421Y005366D01*
X001491Y005366D02*
X001351Y005366D01*
X001491Y005366D02*
X001561Y005436D01*
X001561Y005576D01*
X002140Y005749D02*
X002421Y005749D01*
X002561Y005890D01*
X002421Y006030D01*
X002140Y006030D01*
X002211Y006210D02*
X002140Y006280D01*
X002140Y006420D01*
X002211Y006490D01*
X002281Y006490D01*
X002561Y006210D01*
X002561Y006490D01*
X002561Y006670D02*
X002491Y006670D01*
X002491Y006740D01*
X002561Y006740D01*
X002561Y006670D01*
X002491Y006900D02*
X002211Y007181D01*
X002491Y007181D01*
X002561Y007110D01*
X002561Y006970D01*
X002491Y006900D01*
X002211Y006900D01*
X002140Y006970D01*
X002140Y007110D01*
X002211Y007181D01*
X001561Y007207D02*
X001281Y007207D01*
X001281Y007417D01*
X001351Y007487D01*
X001561Y007487D01*
X001561Y007668D02*
X001561Y007878D01*
X001491Y007948D01*
X001421Y007878D01*
X001421Y007738D01*
X001351Y007668D01*
X001281Y007738D01*
X001281Y007948D01*
X001351Y008128D02*
X001491Y008128D01*
X001561Y008198D01*
X001561Y008338D01*
X001491Y008408D01*
X001351Y008408D01*
X001281Y008338D01*
X001281Y008198D01*
X001351Y008128D01*
X001421Y008588D02*
X001281Y008728D01*
X001281Y008798D01*
X001281Y008588D02*
X001561Y008588D01*
X001421Y007027D02*
X001351Y007027D01*
X001281Y006957D01*
X001281Y006817D01*
X001351Y006747D01*
X001491Y006747D01*
X001561Y006817D01*
X001561Y006957D01*
X001421Y007027D02*
X001421Y006747D01*
X001421Y006567D02*
X001351Y006497D01*
X001351Y006357D01*
X001281Y006287D01*
X001211Y006287D01*
X001140Y006357D01*
X001140Y006497D01*
X001211Y006567D01*
X001421Y006567D02*
X001491Y006567D01*
X001561Y006497D01*
X001561Y006357D01*
X001491Y006287D01*
X002281Y005109D02*
X002281Y004899D01*
X002351Y004829D01*
X002421Y004899D01*
X002421Y005039D01*
X002491Y005109D01*
X002561Y005039D01*
X002561Y004829D01*
X002561Y004662D02*
X002561Y004522D01*
X002561Y004592D02*
X002140Y004592D01*
X002140Y004522D01*
X002351Y004342D02*
X002281Y004272D01*
X002281Y004132D01*
X002351Y004061D01*
X002491Y004061D01*
X002561Y004132D01*
X002561Y004272D01*
X002491Y004342D01*
X002351Y004342D01*
X002351Y003881D02*
X002281Y003811D01*
X002281Y003671D01*
X002351Y003601D01*
X002491Y003601D01*
X002561Y003671D01*
X002561Y003811D01*
X002491Y003881D01*
X002351Y003881D01*
X002140Y003421D02*
X002140Y003141D01*
X002140Y003281D02*
X002561Y003281D01*
X002671Y010641D02*
X002881Y010641D01*
X002881Y010921D01*
X003061Y010921D02*
X003202Y010921D01*
X003132Y010991D02*
X003132Y010711D01*
X003202Y010641D01*
X003368Y010641D02*
X003649Y010641D01*
X003509Y010641D02*
X003509Y011061D01*
X003368Y010921D01*
X003342Y011641D02*
X003132Y011641D01*
X003061Y011711D01*
X003061Y011851D01*
X003132Y011921D01*
X003342Y011921D01*
X003342Y012061D02*
X003342Y011641D01*
X002881Y011641D02*
X002881Y011851D01*
X002811Y011921D01*
X002601Y011921D01*
X002601Y011641D01*
X002421Y011711D02*
X002421Y011851D01*
X002281Y011851D01*
X002421Y011991D02*
X002351Y012061D01*
X002211Y012061D01*
X002141Y011991D01*
X002141Y011711D01*
X002211Y011641D01*
X002351Y011641D01*
X002421Y011711D01*
X002351Y011061D02*
X002211Y011061D01*
X002141Y010991D01*
X002141Y010711D01*
X002211Y010641D01*
X002351Y010641D01*
X002421Y010711D01*
X002421Y010991D01*
X002351Y011061D01*
X002601Y010921D02*
X002601Y010711D01*
X002671Y010641D01*
X004101Y010851D02*
X004351Y010601D01*
X004851Y010601D01*
X005101Y010851D01*
X005101Y011351D01*
X004851Y011601D01*
X005101Y011851D01*
X005101Y012351D01*
X004851Y012601D01*
X004351Y012601D01*
X004101Y012351D01*
X004101Y011851D01*
X004351Y011601D01*
X004101Y011351D01*
X004101Y010851D01*
X004351Y014101D02*
X004101Y014351D01*
X004101Y014851D01*
X004351Y015101D01*
X004101Y015351D01*
X004101Y015851D01*
X004351Y016101D01*
X004101Y016351D01*
X004101Y016851D01*
X004351Y017101D01*
X004101Y017351D01*
X004101Y017851D01*
X004351Y018101D01*
X004101Y018351D01*
X004101Y018851D01*
X004351Y019101D01*
X004851Y019101D01*
X005101Y018851D01*
X005101Y018351D01*
X004851Y018101D01*
X005101Y017851D01*
X005101Y017351D01*
X004851Y017101D01*
X005101Y016851D01*
X005101Y016351D01*
X004851Y016101D01*
X005101Y015851D01*
X005101Y015351D01*
X004851Y015101D01*
X005101Y014851D01*
X005101Y014351D01*
X004851Y014101D01*
X004351Y014101D01*
X003569Y014351D02*
X003289Y014351D01*
X003109Y014421D02*
X002969Y014141D01*
X002829Y014421D01*
X002592Y014421D02*
X002592Y014141D01*
X002522Y014141D02*
X002662Y014141D01*
X002592Y014421D02*
X002522Y014421D01*
X002592Y014561D02*
X002592Y014631D01*
X002342Y014491D02*
X002342Y014211D01*
X002272Y014141D01*
X002061Y014141D01*
X002061Y014561D01*
X002272Y014561D01*
X002342Y014491D01*
X002592Y015141D02*
X002522Y015211D01*
X002522Y015491D01*
X002592Y015561D01*
X002732Y015561D01*
X002802Y015491D01*
X002802Y015351D02*
X002662Y015351D01*
X002802Y015351D02*
X002802Y015211D01*
X002732Y015141D01*
X002592Y015141D01*
X002982Y015141D02*
X002982Y015421D01*
X003192Y015421D01*
X003262Y015351D01*
X003262Y015141D01*
X003443Y015211D02*
X003443Y015351D01*
X003513Y015421D01*
X003723Y015421D01*
X003723Y015561D02*
X003723Y015141D01*
X003513Y015141D01*
X003443Y015211D01*
X002969Y016141D02*
X003109Y016421D01*
X003289Y016351D02*
X003569Y016351D01*
X003429Y016491D02*
X003429Y016211D01*
X002969Y016141D02*
X002829Y016421D01*
X002592Y016421D02*
X002592Y016141D01*
X002522Y016141D02*
X002662Y016141D01*
X002592Y016421D02*
X002522Y016421D01*
X002592Y016561D02*
X002592Y016631D01*
X002342Y016491D02*
X002342Y016211D01*
X002272Y016141D01*
X002061Y016141D01*
X002061Y016561D01*
X002272Y016561D01*
X002342Y016491D01*
X002272Y017141D02*
X002061Y017141D01*
X002061Y017561D01*
X002272Y017561D01*
X002342Y017491D01*
X002342Y017211D01*
X002272Y017141D01*
X001881Y017141D02*
X001601Y017141D01*
X001601Y017561D01*
X001881Y017561D01*
X001741Y017351D02*
X001601Y017351D01*
X001421Y017141D02*
X001141Y017141D01*
X001141Y017561D01*
X001141Y018141D02*
X001421Y018141D01*
X001601Y018141D02*
X001881Y018141D01*
X002061Y018141D02*
X002272Y018141D01*
X002342Y018211D01*
X002342Y018491D01*
X002272Y018561D01*
X002061Y018561D01*
X002061Y018141D01*
X001741Y018351D02*
X001601Y018351D01*
X001601Y018561D02*
X001601Y018141D01*
X001601Y018561D02*
X001881Y018561D01*
X001141Y018561D02*
X001141Y018141D01*
X001141Y016561D02*
X001351Y016561D01*
X001421Y016491D01*
X001421Y016351D01*
X001351Y016281D01*
X001141Y016281D01*
X001141Y016141D02*
X001141Y016561D01*
X001141Y015561D02*
X001351Y015561D01*
X001421Y015491D01*
X001421Y015351D01*
X001351Y015281D01*
X001141Y015281D01*
X001141Y015141D02*
X001141Y015561D01*
X001601Y015561D02*
X001601Y015141D01*
X001811Y015141D01*
X001881Y015211D01*
X001881Y015491D01*
X001811Y015561D01*
X001601Y015561D01*
X001351Y014561D02*
X001141Y014561D01*
X001141Y014141D01*
X001141Y014281D02*
X001351Y014281D01*
X001421Y014351D01*
X001421Y014491D01*
X001351Y014561D01*
X003052Y017141D02*
X003192Y017141D01*
X003262Y017211D01*
X003262Y017351D01*
X003122Y017351D01*
X002982Y017491D02*
X002982Y017211D01*
X003052Y017141D01*
X002982Y017491D02*
X003052Y017561D01*
X003192Y017561D01*
X003262Y017491D01*
X003122Y018141D02*
X003262Y018281D01*
X003262Y018561D01*
X003443Y018351D02*
X003723Y018351D01*
X003583Y018491D02*
X003583Y018211D01*
X003122Y018141D02*
X002982Y018281D01*
X002982Y018561D01*
X004141Y020641D02*
X004421Y020921D01*
X004421Y020991D01*
X004351Y021061D01*
X004211Y021061D01*
X004141Y020991D01*
X004141Y020641D02*
X004421Y020641D01*
X004601Y020711D02*
X004881Y020991D01*
X004881Y020711D01*
X004811Y020641D01*
X004671Y020641D01*
X004601Y020711D01*
X004601Y020991D01*
X004671Y021061D01*
X004811Y021061D01*
X004881Y020991D01*
X005061Y020921D02*
X005202Y021061D01*
X005202Y020641D01*
X005342Y020641D02*
X005061Y020641D01*
X005522Y020711D02*
X005592Y020641D01*
X005732Y020641D01*
X005802Y020711D01*
X005802Y020991D01*
X005522Y020711D01*
X005522Y020991D01*
X005592Y021061D01*
X005732Y021061D01*
X005802Y020991D01*
X005982Y020711D02*
X006052Y020711D01*
X006052Y020641D01*
X005982Y020641D01*
X005982Y020711D01*
X006212Y020641D02*
X006493Y020641D01*
X006352Y020641D02*
X006352Y021061D01*
X006212Y020921D01*
X006673Y020991D02*
X006673Y020711D01*
X006953Y020991D01*
X006953Y020711D01*
X006883Y020641D01*
X006743Y020641D01*
X006673Y020711D01*
X006673Y020991D02*
X006743Y021061D01*
X006883Y021061D01*
X006953Y020991D01*
X007133Y020711D02*
X007203Y020711D01*
X007203Y020641D01*
X007133Y020641D01*
X007133Y020711D01*
X007363Y020711D02*
X007433Y020641D01*
X007573Y020641D01*
X007643Y020711D01*
X007643Y020991D01*
X007363Y020711D01*
X007363Y020991D01*
X007433Y021061D01*
X007573Y021061D01*
X007643Y020991D01*
X007824Y020851D02*
X008034Y020851D01*
X008104Y020781D01*
X008104Y020711D01*
X008034Y020641D01*
X007894Y020641D01*
X007824Y020711D01*
X007824Y020851D01*
X007964Y020991D01*
X008104Y021061D01*
X013640Y021022D02*
X013921Y021022D01*
X014061Y021162D01*
X013921Y021302D01*
X013640Y021302D01*
X013711Y020842D02*
X013640Y020772D01*
X013640Y020632D01*
X013711Y020561D01*
X013711Y020842D02*
X013781Y020842D01*
X014061Y020561D01*
X014061Y020842D01*
X014061Y020381D02*
X014061Y020101D01*
X014061Y020241D02*
X013640Y020241D01*
X013781Y020101D01*
X013851Y019921D02*
X013851Y019641D01*
X013711Y019781D02*
X013991Y019781D01*
X014640Y019711D02*
X014711Y019641D01*
X014991Y019641D01*
X015061Y019711D01*
X015061Y019851D01*
X014991Y019921D01*
X014851Y019921D01*
X014851Y019781D01*
X014711Y019921D02*
X014640Y019851D01*
X014640Y019711D01*
X014781Y020101D02*
X014781Y020311D01*
X014851Y020381D01*
X015061Y020381D01*
X014991Y020561D02*
X014851Y020561D01*
X014781Y020632D01*
X014781Y020842D01*
X014640Y020842D02*
X015061Y020842D01*
X015061Y020632D01*
X014991Y020561D01*
X015061Y020101D02*
X014781Y020101D01*
X015640Y020241D02*
X016061Y020241D01*
X016061Y020101D02*
X016061Y020381D01*
X016061Y020561D02*
X015781Y020842D01*
X015711Y020842D01*
X015640Y020772D01*
X015640Y020632D01*
X015711Y020561D01*
X015640Y020241D02*
X015781Y020101D01*
X015851Y019921D02*
X015851Y019641D01*
X015851Y019101D02*
X016351Y019101D01*
X016601Y018851D01*
X016601Y018351D01*
X016351Y018101D01*
X015851Y018101D01*
X015601Y018351D01*
X015351Y018101D01*
X014851Y018101D01*
X014601Y018351D01*
X014351Y018101D01*
X013851Y018101D01*
X013601Y018351D01*
X013601Y018851D01*
X013851Y019101D01*
X014351Y019101D01*
X014601Y018851D01*
X014851Y019101D01*
X015351Y019101D01*
X015601Y018851D01*
X015851Y019101D01*
X016061Y020561D02*
X016061Y020842D01*
X015921Y021022D02*
X016061Y021162D01*
X015921Y021302D01*
X015640Y021302D01*
X015640Y021022D02*
X015921Y021022D01*
X015851Y009601D02*
X016351Y009601D01*
X016601Y009351D01*
X016601Y008851D01*
X016351Y008601D01*
X016601Y008351D01*
X016601Y007851D01*
X016351Y007601D01*
X015851Y007601D01*
X015601Y007851D01*
X015601Y008351D01*
X015851Y008601D01*
X015601Y008851D01*
X015601Y009351D01*
X015851Y009601D01*
X017141Y009491D02*
X017141Y009211D01*
X017211Y009141D01*
X017351Y009141D01*
X017421Y009211D01*
X017421Y009351D01*
X017281Y009351D01*
X017421Y009491D02*
X017351Y009561D01*
X017211Y009561D01*
X017141Y009491D01*
X017601Y009421D02*
X017601Y009141D01*
X017601Y009421D02*
X017811Y009421D01*
X017881Y009351D01*
X017881Y009141D01*
X018061Y009211D02*
X018061Y009351D01*
X018132Y009421D01*
X018342Y009421D01*
X018342Y009561D02*
X018342Y009141D01*
X018132Y009141D01*
X018061Y009211D01*
X018132Y008491D02*
X018132Y008211D01*
X018202Y008141D01*
X018368Y008211D02*
X018438Y008141D01*
X018579Y008141D01*
X018649Y008211D01*
X018649Y008281D01*
X018579Y008351D01*
X018509Y008351D01*
X018579Y008351D02*
X018649Y008421D01*
X018649Y008491D01*
X018579Y008561D01*
X018438Y008561D01*
X018368Y008491D01*
X018202Y008421D02*
X018061Y008421D01*
X017881Y008421D02*
X017881Y008141D01*
X017671Y008141D01*
X017601Y008211D01*
X017601Y008421D01*
X017421Y008491D02*
X017351Y008561D01*
X017211Y008561D01*
X017141Y008491D01*
X017141Y008211D01*
X017211Y008141D01*
X017351Y008141D01*
X017421Y008211D01*
X017421Y008491D01*
X017351Y006061D02*
X017211Y006061D01*
X017141Y005991D01*
X017141Y005711D01*
X017211Y005641D01*
X017351Y005641D01*
X017421Y005711D01*
X017421Y005991D01*
X017351Y006061D01*
X017601Y005921D02*
X017601Y005711D01*
X017671Y005641D01*
X017881Y005641D01*
X017881Y005921D01*
X018061Y005921D02*
X018202Y005921D01*
X018132Y005991D02*
X018132Y005711D01*
X018202Y005641D01*
X018368Y005641D02*
X018649Y005921D01*
X018649Y005991D01*
X018579Y006061D01*
X018438Y006061D01*
X018368Y005991D01*
X018368Y005641D02*
X018649Y005641D01*
X018342Y005061D02*
X018342Y004641D01*
X018132Y004641D01*
X018061Y004711D01*
X018061Y004851D01*
X018132Y004921D01*
X018342Y004921D01*
X017881Y004851D02*
X017881Y004641D01*
X017881Y004851D02*
X017811Y004921D01*
X017601Y004921D01*
X017601Y004641D01*
X017421Y004711D02*
X017421Y004851D01*
X017281Y004851D01*
X017421Y004991D02*
X017351Y005061D01*
X017211Y005061D01*
X017141Y004991D01*
X017141Y004711D01*
X017211Y004641D01*
X017351Y004641D01*
X017421Y004711D01*
X016601Y004851D02*
X016601Y004351D01*
X016351Y004101D01*
X015851Y004101D01*
X015601Y004351D01*
X015601Y004851D01*
X015851Y005101D01*
X015601Y005351D01*
X015601Y005851D01*
X015851Y006101D01*
X016351Y006101D01*
X016601Y005851D01*
X016601Y005351D01*
X016351Y005101D01*
X016601Y004851D01*
D11*
X013751Y002101D02*
X011451Y002101D01*
X011451Y009101D01*
X012201Y009101D01*
X012203Y009062D01*
X012209Y009023D01*
X012218Y008985D01*
X012231Y008948D01*
X012248Y008912D01*
X012268Y008879D01*
X012292Y008847D01*
X012318Y008818D01*
X012347Y008792D01*
X012379Y008768D01*
X012412Y008748D01*
X012448Y008731D01*
X012485Y008718D01*
X012523Y008709D01*
X012562Y008703D01*
X012601Y008701D01*
X012640Y008703D01*
X012679Y008709D01*
X012717Y008718D01*
X012754Y008731D01*
X012790Y008748D01*
X012823Y008768D01*
X012855Y008792D01*
X012884Y008818D01*
X012910Y008847D01*
X012934Y008879D01*
X012954Y008912D01*
X012971Y008948D01*
X012984Y008985D01*
X012993Y009023D01*
X012999Y009062D01*
X013001Y009101D01*
X013751Y009101D01*
X013751Y002101D01*
X013071Y002631D02*
X012844Y002631D01*
X012731Y002744D01*
X012844Y002858D01*
X013071Y002858D01*
X013071Y002999D02*
X012731Y002999D01*
X012731Y003169D01*
X012787Y003226D01*
X013014Y003226D01*
X013071Y003169D01*
X013071Y002999D01*
X012901Y002858D02*
X012901Y002631D01*
X013014Y003367D02*
X013071Y003367D01*
X013014Y003367D02*
X012787Y003594D01*
X012731Y003594D01*
X012731Y003367D01*
X012787Y003736D02*
X012731Y003792D01*
X012731Y003906D01*
X012787Y003963D01*
X012844Y003963D01*
X012901Y003906D01*
X012957Y003963D01*
X013014Y003963D01*
X013071Y003906D01*
X013071Y003792D01*
X013014Y003736D01*
X012901Y003849D02*
X012901Y003906D01*
X012901Y004104D02*
X012901Y004331D01*
X012901Y004472D02*
X012901Y004699D01*
X012844Y004699D02*
X013071Y004699D01*
X013014Y004841D02*
X013071Y004897D01*
X013071Y005011D01*
X013014Y005067D01*
X012787Y005067D01*
X012731Y005011D01*
X012731Y004897D01*
X012787Y004841D01*
X013014Y004841D01*
X012957Y004954D02*
X013071Y005067D01*
X012844Y004699D02*
X012731Y004586D01*
X012844Y004472D01*
X013071Y004472D01*
X013071Y004274D02*
X012731Y004274D01*
X012901Y004104D01*
X009251Y010151D02*
X009101Y010151D01*
X009051Y010201D01*
X007151Y010201D01*
X007101Y010151D01*
X006951Y010151D01*
X006934Y010153D01*
X006917Y010157D01*
X006901Y010164D01*
X006887Y010174D01*
X006874Y010187D01*
X006864Y010201D01*
X006857Y010217D01*
X006853Y010234D01*
X006851Y010251D01*
X006851Y010951D01*
X006853Y010968D01*
X006857Y010985D01*
X006864Y011001D01*
X006874Y011015D01*
X006887Y011028D01*
X006901Y011038D01*
X006917Y011045D01*
X006934Y011049D01*
X006951Y011051D01*
X007101Y011051D01*
X007151Y011001D01*
X009051Y011001D01*
X009101Y011051D01*
X009251Y011051D01*
X009268Y011049D01*
X009285Y011045D01*
X009301Y011038D01*
X009315Y011028D01*
X009328Y011015D01*
X009338Y011001D01*
X009345Y010985D01*
X009349Y010968D01*
X009351Y010951D01*
X009351Y010251D01*
X009349Y010234D01*
X009345Y010217D01*
X009338Y010201D01*
X009328Y010187D01*
X009315Y010174D01*
X009301Y010164D01*
X009285Y010157D01*
X009268Y010153D01*
X009251Y010151D01*
X010751Y011851D02*
X011451Y011851D01*
X011468Y011853D01*
X011485Y011857D01*
X011501Y011864D01*
X011515Y011874D01*
X011528Y011887D01*
X011538Y011901D01*
X011545Y011917D01*
X011549Y011934D01*
X011551Y011951D01*
X011551Y012101D01*
X011501Y012151D01*
X011501Y014051D01*
X011551Y014101D01*
X011551Y014251D01*
X011549Y014268D01*
X011545Y014285D01*
X011538Y014301D01*
X011528Y014315D01*
X011515Y014328D01*
X011501Y014338D01*
X011485Y014345D01*
X011468Y014349D01*
X011451Y014351D01*
X010751Y014351D01*
X010734Y014349D01*
X010717Y014345D01*
X010701Y014338D01*
X010687Y014328D01*
X010674Y014315D01*
X010664Y014301D01*
X010657Y014285D01*
X010653Y014268D01*
X010651Y014251D01*
X010651Y014101D01*
X010701Y014051D01*
X010701Y012151D01*
X010651Y012101D01*
X010651Y011951D01*
X010653Y011934D01*
X010657Y011917D01*
X010664Y011901D01*
X010674Y011887D01*
X010687Y011874D01*
X010701Y011864D01*
X010717Y011857D01*
X010734Y011853D01*
X010751Y011851D01*
X009551Y012201D02*
X009551Y013001D01*
X009549Y013018D01*
X009545Y013035D01*
X009538Y013051D01*
X009528Y013065D01*
X009515Y013078D01*
X009501Y013088D01*
X009485Y013095D01*
X009468Y013099D01*
X009451Y013101D01*
X006751Y013101D01*
X006734Y013099D01*
X006717Y013095D01*
X006701Y013088D01*
X006687Y013078D01*
X006674Y013065D01*
X006664Y013051D01*
X006657Y013035D01*
X006653Y013018D01*
X006651Y013001D01*
X006651Y012201D01*
X006653Y012184D01*
X006657Y012167D01*
X006664Y012151D01*
X006674Y012137D01*
X006687Y012124D01*
X006701Y012114D01*
X006717Y012107D01*
X006734Y012103D01*
X006751Y012101D01*
X009451Y012101D01*
X009468Y012103D01*
X009485Y012107D01*
X009501Y012114D01*
X009515Y012124D01*
X009528Y012137D01*
X009538Y012151D01*
X009545Y012167D01*
X009549Y012184D01*
X009551Y012201D01*
X008701Y012601D02*
X008231Y012601D01*
X007981Y012601D02*
X007501Y012601D01*
X006751Y014101D02*
X009451Y014101D01*
X009468Y014103D01*
X009485Y014107D01*
X009501Y014114D01*
X009515Y014124D01*
X009528Y014137D01*
X009538Y014151D01*
X009545Y014167D01*
X009549Y014184D01*
X009551Y014201D01*
X009551Y015001D01*
X009549Y015018D01*
X009545Y015035D01*
X009538Y015051D01*
X009528Y015065D01*
X009515Y015078D01*
X009501Y015088D01*
X009485Y015095D01*
X009468Y015099D01*
X009451Y015101D01*
X006751Y015101D01*
X006734Y015099D01*
X006717Y015095D01*
X006701Y015088D01*
X006687Y015078D01*
X006674Y015065D01*
X006664Y015051D01*
X006657Y015035D01*
X006653Y015018D01*
X006651Y015001D01*
X006651Y014201D01*
X006653Y014184D01*
X006657Y014167D01*
X006664Y014151D01*
X006674Y014137D01*
X006687Y014124D01*
X006701Y014114D01*
X006717Y014107D01*
X006734Y014103D01*
X006751Y014101D01*
X007501Y014601D02*
X007981Y014601D01*
X008231Y014601D02*
X008701Y014601D01*
X009101Y016151D02*
X009251Y016151D01*
X009268Y016153D01*
X009285Y016157D01*
X009301Y016164D01*
X009315Y016174D01*
X009328Y016187D01*
X009338Y016201D01*
X009345Y016217D01*
X009349Y016234D01*
X009351Y016251D01*
X009351Y016951D01*
X009349Y016968D01*
X009345Y016985D01*
X009338Y017001D01*
X009328Y017015D01*
X009315Y017028D01*
X009301Y017038D01*
X009285Y017045D01*
X009268Y017049D01*
X009251Y017051D01*
X009101Y017051D01*
X009051Y017001D01*
X007151Y017001D01*
X007101Y017051D01*
X006951Y017051D01*
X006934Y017049D01*
X006917Y017045D01*
X006901Y017038D01*
X006887Y017028D01*
X006874Y017015D01*
X006864Y017001D01*
X006857Y016985D01*
X006853Y016968D01*
X006851Y016951D01*
X006851Y016251D01*
X006853Y016234D01*
X006857Y016217D01*
X006864Y016201D01*
X006874Y016187D01*
X006887Y016174D01*
X006901Y016164D01*
X006917Y016157D01*
X006934Y016153D01*
X006951Y016151D01*
X007101Y016151D01*
X007151Y016201D01*
X009051Y016201D01*
X009101Y016151D01*
X010451Y018001D02*
X010701Y018001D01*
X010718Y018003D01*
X010735Y018007D01*
X010751Y018014D01*
X010765Y018024D01*
X010778Y018037D01*
X010788Y018051D01*
X010795Y018067D01*
X010799Y018084D01*
X010801Y018101D01*
X010801Y019101D01*
X010799Y019118D01*
X010795Y019135D01*
X010788Y019151D01*
X010778Y019165D01*
X010765Y019178D01*
X010751Y019188D01*
X010735Y019195D01*
X010718Y019199D01*
X010701Y019201D01*
X010451Y019201D01*
X010401Y019151D01*
X007801Y019151D01*
X007751Y019201D01*
X007501Y019201D01*
X007484Y019199D01*
X007467Y019195D01*
X007451Y019188D01*
X007437Y019178D01*
X007424Y019165D01*
X007414Y019151D01*
X007407Y019135D01*
X007403Y019118D01*
X007401Y019101D01*
X007401Y018101D01*
X007403Y018084D01*
X007407Y018067D01*
X007414Y018051D01*
X007424Y018037D01*
X007437Y018024D01*
X007451Y018014D01*
X007467Y018007D01*
X007484Y018003D01*
X007501Y018001D01*
X007751Y018001D01*
X007801Y018051D01*
X010401Y018051D01*
X010451Y018001D01*
X012351Y016951D02*
X012351Y016251D01*
X012353Y016234D01*
X012357Y016217D01*
X012364Y016201D01*
X012374Y016187D01*
X012387Y016174D01*
X012401Y016164D01*
X012417Y016157D01*
X012434Y016153D01*
X012451Y016151D01*
X012601Y016151D01*
X012651Y016201D01*
X014551Y016201D01*
X014601Y016151D01*
X014751Y016151D01*
X014768Y016153D01*
X014785Y016157D01*
X014801Y016164D01*
X014815Y016174D01*
X014828Y016187D01*
X014838Y016201D01*
X014845Y016217D01*
X014849Y016234D01*
X014851Y016251D01*
X014851Y016951D01*
X014849Y016968D01*
X014845Y016985D01*
X014838Y017001D01*
X014828Y017015D01*
X014815Y017028D01*
X014801Y017038D01*
X014785Y017045D01*
X014768Y017049D01*
X014751Y017051D01*
X014601Y017051D01*
X014551Y017001D01*
X012651Y017001D01*
X012601Y017051D01*
X012451Y017051D01*
X012434Y017049D01*
X012417Y017045D01*
X012401Y017038D01*
X012387Y017028D01*
X012374Y017015D01*
X012364Y017001D01*
X012357Y016985D01*
X012353Y016968D01*
X012351Y016951D01*
X013451Y014601D02*
X014201Y014601D01*
X014203Y014562D01*
X014209Y014523D01*
X014218Y014485D01*
X014231Y014448D01*
X014248Y014412D01*
X014268Y014379D01*
X014292Y014347D01*
X014318Y014318D01*
X014347Y014292D01*
X014379Y014268D01*
X014412Y014248D01*
X014448Y014231D01*
X014485Y014218D01*
X014523Y014209D01*
X014562Y014203D01*
X014601Y014201D01*
X014640Y014203D01*
X014679Y014209D01*
X014717Y014218D01*
X014754Y014231D01*
X014790Y014248D01*
X014823Y014268D01*
X014855Y014292D01*
X014884Y014318D01*
X014910Y014347D01*
X014934Y014379D01*
X014954Y014412D01*
X014971Y014448D01*
X014984Y014485D01*
X014993Y014523D01*
X014999Y014562D01*
X015001Y014601D01*
X015751Y014601D01*
X015751Y010601D01*
X013451Y010601D01*
X013451Y014601D01*
X014731Y012831D02*
X014787Y012717D01*
X014901Y012604D01*
X014901Y012774D01*
X014957Y012831D01*
X015014Y012831D01*
X015071Y012774D01*
X015071Y012661D01*
X015014Y012604D01*
X014901Y012604D01*
X014844Y012463D02*
X015071Y012236D01*
X015071Y012463D01*
X014844Y012463D02*
X014787Y012463D01*
X014731Y012406D01*
X014731Y012292D01*
X014787Y012236D01*
X014787Y012094D02*
X014844Y012094D01*
X014901Y012038D01*
X014901Y011924D01*
X014844Y011867D01*
X014787Y011867D01*
X014731Y011924D01*
X014731Y012038D01*
X014787Y012094D01*
X014901Y012038D02*
X014957Y012094D01*
X015014Y012094D01*
X015071Y012038D01*
X015071Y011924D01*
X015014Y011867D01*
X014957Y011867D01*
X014901Y011924D01*
X015014Y011726D02*
X014787Y011726D01*
X014731Y011669D01*
X014731Y011499D01*
X015071Y011499D01*
X015071Y011669D01*
X015014Y011726D01*
X015071Y011358D02*
X014844Y011358D01*
X014731Y011244D01*
X014844Y011131D01*
X015071Y011131D01*
X014901Y011131D02*
X014901Y011358D01*
X007251Y009101D02*
X006501Y009101D01*
X006499Y009062D01*
X006493Y009023D01*
X006484Y008985D01*
X006471Y008948D01*
X006454Y008912D01*
X006434Y008879D01*
X006410Y008847D01*
X006384Y008818D01*
X006355Y008792D01*
X006323Y008768D01*
X006290Y008748D01*
X006254Y008731D01*
X006217Y008718D01*
X006179Y008709D01*
X006140Y008703D01*
X006101Y008701D01*
X006062Y008703D01*
X006023Y008709D01*
X005985Y008718D01*
X005948Y008731D01*
X005912Y008748D01*
X005879Y008768D01*
X005847Y008792D01*
X005818Y008818D01*
X005792Y008847D01*
X005768Y008879D01*
X005748Y008912D01*
X005731Y008948D01*
X005718Y008985D01*
X005709Y009023D01*
X005703Y009062D01*
X005701Y009101D01*
X004951Y009101D01*
X004951Y002101D01*
X007251Y002101D01*
X007251Y009101D01*
X006287Y004331D02*
X006231Y004331D01*
X006231Y004104D01*
X006231Y003963D02*
X006287Y003849D01*
X006401Y003736D01*
X006401Y003906D01*
X006457Y003963D01*
X006514Y003963D01*
X006571Y003906D01*
X006571Y003792D01*
X006514Y003736D01*
X006401Y003736D01*
X006401Y003594D02*
X006401Y003367D01*
X006231Y003538D01*
X006571Y003538D01*
X006401Y003226D02*
X006457Y003169D01*
X006457Y002999D01*
X006571Y002999D02*
X006231Y002999D01*
X006231Y003169D01*
X006287Y003226D01*
X006401Y003226D01*
X006514Y002858D02*
X006287Y002858D01*
X006231Y002801D01*
X006231Y002687D01*
X006287Y002631D01*
X006514Y002631D01*
X006571Y002687D01*
X006571Y002801D01*
X006514Y002858D01*
X006514Y004104D02*
X006571Y004104D01*
X006514Y004104D02*
X006287Y004331D01*
D12*
X006681Y010601D03*
X009521Y010601D03*
X009521Y016601D03*
X010971Y018601D03*
X012181Y016601D03*
X015021Y016601D03*
X007231Y018601D03*
X006681Y016601D03*
D13*
X011101Y014521D03*
X011101Y011681D03*
D14*
X008231Y012351D02*
X008231Y012601D01*
X008231Y012851D01*
X007981Y012851D02*
X007981Y012601D01*
X007981Y012351D01*
X007981Y014351D02*
X007981Y014601D01*
X007981Y014851D01*
X008231Y014851D02*
X008231Y014601D01*
X008231Y014351D01*
M02*
