G75*
G70*
%OFA0B0*%
%FSLAX24Y24*%
%IPPOS*%
%LPD*%
%AMOC8*
5,1,8,0,0,1.08239X$1,22.5*
%
%ADD10C,0.0600*%
%ADD11OC8,0.0600*%
%ADD12C,0.0820*%
%ADD13C,0.1380*%
D10*
X004341Y002601D02*
X004861Y002601D01*
X004861Y003601D02*
X004341Y003601D01*
X004341Y004601D02*
X004861Y004601D01*
X004861Y005601D02*
X004341Y005601D01*
X004341Y006601D02*
X004861Y006601D01*
X004861Y007601D02*
X004341Y007601D01*
X004341Y008601D02*
X004861Y008601D01*
X007341Y008601D02*
X007861Y008601D01*
X007861Y007601D02*
X007341Y007601D01*
X007341Y006601D02*
X007861Y006601D01*
X007861Y005601D02*
X007341Y005601D01*
X007341Y004601D02*
X007861Y004601D01*
X007861Y003601D02*
X007341Y003601D01*
X007341Y002601D02*
X007861Y002601D01*
X010841Y002601D02*
X011361Y002601D01*
X011361Y003601D02*
X010841Y003601D01*
X010841Y004601D02*
X011361Y004601D01*
X011361Y005601D02*
X010841Y005601D01*
X010841Y006601D02*
X011361Y006601D01*
X011361Y007601D02*
X010841Y007601D01*
X010841Y008601D02*
X011361Y008601D01*
X013841Y008601D02*
X014361Y008601D01*
X014361Y007601D02*
X013841Y007601D01*
X013841Y006601D02*
X014361Y006601D01*
X014361Y005601D02*
X013841Y005601D01*
X013841Y004601D02*
X014361Y004601D01*
X014361Y003601D02*
X013841Y003601D01*
X013841Y002601D02*
X014361Y002601D01*
X013361Y011101D02*
X012841Y011101D01*
X012841Y012101D02*
X013361Y012101D01*
X013361Y013101D02*
X012841Y013101D01*
X012841Y014101D02*
X013361Y014101D01*
X015841Y014101D02*
X016361Y014101D01*
X016361Y013101D02*
X015841Y013101D01*
X015841Y012101D02*
X016361Y012101D01*
X016361Y011101D02*
X015841Y011101D01*
D11*
X011101Y011101D03*
X010101Y010601D03*
X009101Y012601D03*
X009101Y014601D03*
X010101Y016601D03*
X011101Y015101D03*
X011601Y016601D03*
X011601Y018601D03*
X015601Y016601D03*
X007101Y014601D03*
X007101Y012601D03*
X006101Y010601D03*
X006101Y016601D03*
X006601Y018601D03*
D12*
X004601Y018601D03*
X004601Y017601D03*
X004601Y016601D03*
X004601Y015601D03*
X004601Y014601D03*
X004601Y012101D03*
X004601Y011101D03*
X014101Y018601D03*
X015101Y018601D03*
X016101Y018601D03*
X016101Y009101D03*
X016101Y008101D03*
X016101Y005601D03*
X016101Y004601D03*
D13*
X001601Y001601D03*
X018101Y001601D03*
X018101Y020601D03*
X001601Y020601D03*
M02*
