G75*
G70*
%OFA0B0*%
%FSLAX24Y24*%
%IPPOS*%
%LPD*%
%AMOC8*
5,1,8,0,0,1.08239X$1,22.5*
%
%ADD10C,0.0000*%
%ADD11C,0.0520*%
%ADD12OC8,0.0520*%
%ADD13C,0.0740*%
%ADD14C,0.0100*%
D10*
X000101Y000101D02*
X000101Y022097D01*
X019471Y022097D01*
X019471Y000101D01*
X000101Y000101D01*
X000951Y001601D02*
X000953Y001651D01*
X000959Y001701D01*
X000969Y001751D01*
X000982Y001799D01*
X000999Y001847D01*
X001020Y001893D01*
X001044Y001937D01*
X001072Y001979D01*
X001103Y002019D01*
X001137Y002056D01*
X001174Y002091D01*
X001213Y002122D01*
X001254Y002151D01*
X001298Y002176D01*
X001344Y002198D01*
X001391Y002216D01*
X001439Y002230D01*
X001488Y002241D01*
X001538Y002248D01*
X001588Y002251D01*
X001639Y002250D01*
X001689Y002245D01*
X001739Y002236D01*
X001787Y002224D01*
X001835Y002207D01*
X001881Y002187D01*
X001926Y002164D01*
X001969Y002137D01*
X002009Y002107D01*
X002047Y002074D01*
X002082Y002038D01*
X002115Y001999D01*
X002144Y001958D01*
X002170Y001915D01*
X002193Y001870D01*
X002212Y001823D01*
X002227Y001775D01*
X002239Y001726D01*
X002247Y001676D01*
X002251Y001626D01*
X002251Y001576D01*
X002247Y001526D01*
X002239Y001476D01*
X002227Y001427D01*
X002212Y001379D01*
X002193Y001332D01*
X002170Y001287D01*
X002144Y001244D01*
X002115Y001203D01*
X002082Y001164D01*
X002047Y001128D01*
X002009Y001095D01*
X001969Y001065D01*
X001926Y001038D01*
X001881Y001015D01*
X001835Y000995D01*
X001787Y000978D01*
X001739Y000966D01*
X001689Y000957D01*
X001639Y000952D01*
X001588Y000951D01*
X001538Y000954D01*
X001488Y000961D01*
X001439Y000972D01*
X001391Y000986D01*
X001344Y001004D01*
X001298Y001026D01*
X001254Y001051D01*
X001213Y001080D01*
X001174Y001111D01*
X001137Y001146D01*
X001103Y001183D01*
X001072Y001223D01*
X001044Y001265D01*
X001020Y001309D01*
X000999Y001355D01*
X000982Y001403D01*
X000969Y001451D01*
X000959Y001501D01*
X000953Y001551D01*
X000951Y001601D01*
X000951Y020601D02*
X000953Y020651D01*
X000959Y020701D01*
X000969Y020751D01*
X000982Y020799D01*
X000999Y020847D01*
X001020Y020893D01*
X001044Y020937D01*
X001072Y020979D01*
X001103Y021019D01*
X001137Y021056D01*
X001174Y021091D01*
X001213Y021122D01*
X001254Y021151D01*
X001298Y021176D01*
X001344Y021198D01*
X001391Y021216D01*
X001439Y021230D01*
X001488Y021241D01*
X001538Y021248D01*
X001588Y021251D01*
X001639Y021250D01*
X001689Y021245D01*
X001739Y021236D01*
X001787Y021224D01*
X001835Y021207D01*
X001881Y021187D01*
X001926Y021164D01*
X001969Y021137D01*
X002009Y021107D01*
X002047Y021074D01*
X002082Y021038D01*
X002115Y020999D01*
X002144Y020958D01*
X002170Y020915D01*
X002193Y020870D01*
X002212Y020823D01*
X002227Y020775D01*
X002239Y020726D01*
X002247Y020676D01*
X002251Y020626D01*
X002251Y020576D01*
X002247Y020526D01*
X002239Y020476D01*
X002227Y020427D01*
X002212Y020379D01*
X002193Y020332D01*
X002170Y020287D01*
X002144Y020244D01*
X002115Y020203D01*
X002082Y020164D01*
X002047Y020128D01*
X002009Y020095D01*
X001969Y020065D01*
X001926Y020038D01*
X001881Y020015D01*
X001835Y019995D01*
X001787Y019978D01*
X001739Y019966D01*
X001689Y019957D01*
X001639Y019952D01*
X001588Y019951D01*
X001538Y019954D01*
X001488Y019961D01*
X001439Y019972D01*
X001391Y019986D01*
X001344Y020004D01*
X001298Y020026D01*
X001254Y020051D01*
X001213Y020080D01*
X001174Y020111D01*
X001137Y020146D01*
X001103Y020183D01*
X001072Y020223D01*
X001044Y020265D01*
X001020Y020309D01*
X000999Y020355D01*
X000982Y020403D01*
X000969Y020451D01*
X000959Y020501D01*
X000953Y020551D01*
X000951Y020601D01*
X017451Y020601D02*
X017453Y020651D01*
X017459Y020701D01*
X017469Y020751D01*
X017482Y020799D01*
X017499Y020847D01*
X017520Y020893D01*
X017544Y020937D01*
X017572Y020979D01*
X017603Y021019D01*
X017637Y021056D01*
X017674Y021091D01*
X017713Y021122D01*
X017754Y021151D01*
X017798Y021176D01*
X017844Y021198D01*
X017891Y021216D01*
X017939Y021230D01*
X017988Y021241D01*
X018038Y021248D01*
X018088Y021251D01*
X018139Y021250D01*
X018189Y021245D01*
X018239Y021236D01*
X018287Y021224D01*
X018335Y021207D01*
X018381Y021187D01*
X018426Y021164D01*
X018469Y021137D01*
X018509Y021107D01*
X018547Y021074D01*
X018582Y021038D01*
X018615Y020999D01*
X018644Y020958D01*
X018670Y020915D01*
X018693Y020870D01*
X018712Y020823D01*
X018727Y020775D01*
X018739Y020726D01*
X018747Y020676D01*
X018751Y020626D01*
X018751Y020576D01*
X018747Y020526D01*
X018739Y020476D01*
X018727Y020427D01*
X018712Y020379D01*
X018693Y020332D01*
X018670Y020287D01*
X018644Y020244D01*
X018615Y020203D01*
X018582Y020164D01*
X018547Y020128D01*
X018509Y020095D01*
X018469Y020065D01*
X018426Y020038D01*
X018381Y020015D01*
X018335Y019995D01*
X018287Y019978D01*
X018239Y019966D01*
X018189Y019957D01*
X018139Y019952D01*
X018088Y019951D01*
X018038Y019954D01*
X017988Y019961D01*
X017939Y019972D01*
X017891Y019986D01*
X017844Y020004D01*
X017798Y020026D01*
X017754Y020051D01*
X017713Y020080D01*
X017674Y020111D01*
X017637Y020146D01*
X017603Y020183D01*
X017572Y020223D01*
X017544Y020265D01*
X017520Y020309D01*
X017499Y020355D01*
X017482Y020403D01*
X017469Y020451D01*
X017459Y020501D01*
X017453Y020551D01*
X017451Y020601D01*
X017451Y001601D02*
X017453Y001651D01*
X017459Y001701D01*
X017469Y001751D01*
X017482Y001799D01*
X017499Y001847D01*
X017520Y001893D01*
X017544Y001937D01*
X017572Y001979D01*
X017603Y002019D01*
X017637Y002056D01*
X017674Y002091D01*
X017713Y002122D01*
X017754Y002151D01*
X017798Y002176D01*
X017844Y002198D01*
X017891Y002216D01*
X017939Y002230D01*
X017988Y002241D01*
X018038Y002248D01*
X018088Y002251D01*
X018139Y002250D01*
X018189Y002245D01*
X018239Y002236D01*
X018287Y002224D01*
X018335Y002207D01*
X018381Y002187D01*
X018426Y002164D01*
X018469Y002137D01*
X018509Y002107D01*
X018547Y002074D01*
X018582Y002038D01*
X018615Y001999D01*
X018644Y001958D01*
X018670Y001915D01*
X018693Y001870D01*
X018712Y001823D01*
X018727Y001775D01*
X018739Y001726D01*
X018747Y001676D01*
X018751Y001626D01*
X018751Y001576D01*
X018747Y001526D01*
X018739Y001476D01*
X018727Y001427D01*
X018712Y001379D01*
X018693Y001332D01*
X018670Y001287D01*
X018644Y001244D01*
X018615Y001203D01*
X018582Y001164D01*
X018547Y001128D01*
X018509Y001095D01*
X018469Y001065D01*
X018426Y001038D01*
X018381Y001015D01*
X018335Y000995D01*
X018287Y000978D01*
X018239Y000966D01*
X018189Y000957D01*
X018139Y000952D01*
X018088Y000951D01*
X018038Y000954D01*
X017988Y000961D01*
X017939Y000972D01*
X017891Y000986D01*
X017844Y001004D01*
X017798Y001026D01*
X017754Y001051D01*
X017713Y001080D01*
X017674Y001111D01*
X017637Y001146D01*
X017603Y001183D01*
X017572Y001223D01*
X017544Y001265D01*
X017520Y001309D01*
X017499Y001355D01*
X017482Y001403D01*
X017469Y001451D01*
X017459Y001501D01*
X017453Y001551D01*
X017451Y001601D01*
D11*
X014361Y002601D02*
X013841Y002601D01*
X013841Y003601D02*
X014361Y003601D01*
X014361Y004601D02*
X013841Y004601D01*
X013841Y005601D02*
X014361Y005601D01*
X014361Y006601D02*
X013841Y006601D01*
X013841Y007601D02*
X014361Y007601D01*
X014361Y008601D02*
X013841Y008601D01*
X011361Y008601D02*
X010841Y008601D01*
X010841Y007601D02*
X011361Y007601D01*
X011361Y006601D02*
X010841Y006601D01*
X010841Y005601D02*
X011361Y005601D01*
X011361Y004601D02*
X010841Y004601D01*
X010841Y003601D02*
X011361Y003601D01*
X011361Y002601D02*
X010841Y002601D01*
X007861Y002601D02*
X007341Y002601D01*
X007341Y003601D02*
X007861Y003601D01*
X007861Y004601D02*
X007341Y004601D01*
X007341Y005601D02*
X007861Y005601D01*
X007861Y006601D02*
X007341Y006601D01*
X007341Y007601D02*
X007861Y007601D01*
X007861Y008601D02*
X007341Y008601D01*
X004861Y008601D02*
X004341Y008601D01*
X004341Y007601D02*
X004861Y007601D01*
X004861Y006601D02*
X004341Y006601D01*
X004341Y005601D02*
X004861Y005601D01*
X004861Y004601D02*
X004341Y004601D01*
X004341Y003601D02*
X004861Y003601D01*
X004861Y002601D02*
X004341Y002601D01*
X012841Y011101D02*
X013361Y011101D01*
X013361Y012101D02*
X012841Y012101D01*
X012841Y013101D02*
X013361Y013101D01*
X013361Y014101D02*
X012841Y014101D01*
X015841Y014101D02*
X016361Y014101D01*
X016361Y013101D02*
X015841Y013101D01*
X015841Y012101D02*
X016361Y012101D01*
X016361Y011101D02*
X015841Y011101D01*
D12*
X011101Y011101D03*
X010101Y010601D03*
X009101Y012601D03*
X009101Y014601D03*
X010101Y016601D03*
X011101Y015101D03*
X011601Y016601D03*
X011601Y018601D03*
X015601Y016601D03*
X007101Y014601D03*
X007101Y012601D03*
X006101Y010601D03*
X006101Y016601D03*
X006601Y018601D03*
D13*
X004601Y018601D03*
X004601Y017601D03*
X004601Y016601D03*
X004601Y015601D03*
X004601Y014601D03*
X004601Y012101D03*
X004601Y011101D03*
X014101Y018601D03*
X015101Y018601D03*
X016101Y018601D03*
X016101Y009101D03*
X016101Y008101D03*
X016101Y005601D03*
X016101Y004601D03*
D14*
X017101Y004601D01*
X017101Y008101D01*
X016101Y009101D01*
X017101Y009101D01*
X017101Y016601D01*
X015101Y018601D01*
X014101Y018601D02*
X011601Y018601D01*
X011601Y019601D01*
X003101Y019601D01*
X003101Y006601D01*
X004601Y005601D01*
X005601Y004601D02*
X005601Y013601D01*
X004601Y014601D01*
X006101Y015601D02*
X006101Y012601D01*
X006101Y010601D01*
X006101Y009601D02*
X008101Y009601D01*
X008101Y013601D01*
X009101Y014601D01*
X010101Y015601D01*
X010101Y016601D01*
X011601Y016601D01*
X011101Y015101D02*
X010601Y014601D01*
X010601Y010101D01*
X009601Y009101D01*
X009601Y005601D01*
X007601Y003601D01*
X007601Y002601D02*
X010101Y005101D01*
X010101Y007601D01*
X011101Y008601D01*
X011101Y011101D01*
X012101Y011101D02*
X012101Y003601D01*
X011101Y002601D01*
X011101Y003601D02*
X011101Y004601D01*
X011101Y005601D01*
X011101Y006601D01*
X013101Y005601D02*
X013101Y004601D01*
X012101Y003601D01*
X013101Y005601D02*
X014101Y006601D01*
X015101Y005601D02*
X016101Y005601D01*
X015101Y005601D02*
X015101Y011101D01*
X016101Y012101D01*
X016101Y013101D01*
X016101Y014101D02*
X014101Y014101D01*
X014101Y008601D01*
X012101Y011101D02*
X013101Y012101D01*
X013101Y013101D02*
X013101Y014101D01*
X014101Y014101D02*
X014101Y018601D01*
X010101Y012601D02*
X009101Y012601D01*
X010101Y012601D02*
X010101Y010601D01*
X007601Y008601D02*
X007601Y007601D01*
X007601Y005601D02*
X006601Y004601D01*
X006601Y001601D01*
X014101Y001601D01*
X014101Y002601D01*
X006101Y004101D02*
X004601Y002601D01*
X004601Y003601D02*
X005601Y004601D01*
X006101Y004101D02*
X006101Y009601D01*
X006101Y012601D02*
X007101Y012601D01*
X007101Y014601D02*
X007101Y015601D01*
X006101Y016601D01*
X006101Y015601D02*
X004601Y016601D01*
X004601Y018601D02*
X006601Y018601D01*
M02*
