%
M48
M72
T01C0.0320
T02C0.0400
T03C0.1300
%
T01
X4601Y2601
X4601Y3601
X4601Y4601
X4601Y5601
X4601Y6601
X4601Y7601
X4601Y8601
X6101Y10601
X7101Y12601
X7101Y14601
X6101Y16601
X6601Y18601
X10101Y16601
X11101Y15101
X11601Y16601
X11601Y18601
X9101Y14601
X9101Y12601
X10101Y10601
X11101Y11101
X13101Y11101
X13101Y12101
X13101Y13101
X13101Y14101
X15601Y16601
X16101Y14101
X16101Y13101
X16101Y12101
X16101Y11101
X14101Y8601
X14101Y7601
X14101Y6601
X14101Y5601
X14101Y4601
X14101Y3601
X14101Y2601
X11101Y2601
X11101Y3601
X11101Y4601
X11101Y5601
X11101Y6601
X11101Y7601
X11101Y8601
X7601Y8601
X7601Y7601
X7601Y6601
X7601Y5601
X7601Y4601
X7601Y3601
X7601Y2601
T02
X4601Y11101
X4601Y12101
X4601Y14601
X4601Y15601
X4601Y16601
X4601Y17601
X4601Y18601
X14101Y18601
X15101Y18601
X16101Y18601
X16101Y9101
X16101Y8101
X16101Y5601
X16101Y4601
T03
X1601Y1601
X18101Y1601
X18101Y20601
X1601Y20601
M30
